<mxfile host="app.diagrams.net" modified="2023-09-26T10:43:07.813Z" agent="Mozilla/5.0 (X11; Ubuntu; Linux x86_64; rv:109.0) Gecko/20100101 Firefox/114.0" version="21.8.2" etag="OI5pKadb4LJAN2bJ4Z0-" type="github">
  <diagram name="Page-1" id="PxOr-i3_ifYql_UkKXzY">
    <mxGraphModel>
      <root>
        <mxCell id="0" />
        <mxCell id="1" parent="0" />
      </root>
    </mxGraphModel>
  </diagram>
</mxfile>
